/* XPM */
static char * scoreboard_xpm[] = {
"48 48 538 2",
"  	c None",
". 	c #984601",
"+ 	c #934201",
"@ 	c #CE5D01",
"# 	c #F16E01",
"$ 	c #F16E02",
"% 	c #EF6D02",
"& 	c #EC6B02",
"* 	c #EA6903",
"= 	c #F36E02",
"- 	c #E66A01",
"; 	c #813B01",
"> 	c #D15F01",
", 	c #F67001",
"' 	c #F57001",
") 	c #F46F01",
"! 	c #F36F01",
"~ 	c #F26E01",
"{ 	c #F06D02",
"] 	c #ED6C02",
"^ 	c #EA6B03",
"/ 	c #E76903",
"( 	c #E36804",
"_ 	c #E46701",
": 	c #713300",
"< 	c #EE6D01",
"[ 	c #F97101",
"} 	c #F87101",
"| 	c #F77001",
"1 	c #EE6C02",
"2 	c #E66903",
"3 	c #E36704",
"4 	c #DF6405",
"5 	c #652E00",
"6 	c #FB7201",
"7 	c #FC7300",
"8 	c #FA7201",
"9 	c #E96A03",
"0 	c #E56803",
"a 	c #E16604",
"b 	c #DB6405",
"c 	c #F56F01",
"d 	c #6A3000",
"e 	c #D96300",
"f 	c #F77101",
"g 	c #F36E01",
"h 	c #E16603",
"i 	c #AC4E03",
"j 	c #833B03",
"k 	c #723303",
"l 	c #B95401",
"m 	c #964500",
"n 	c #FD7300",
"o 	c #AA4D01",
"p 	c #4E2401",
"q 	c #2D1401",
"r 	c #753502",
"s 	c #B15003",
"t 	c #C85A05",
"u 	c #BD5605",
"v 	c #622D00",
"w 	c #FB7300",
"x 	c #FD7400",
"y 	c #FE7400",
"z 	c #A14A01",
"A 	c #281200",
"B 	c #4A2200",
"C 	c #AF5001",
"D 	c #EB6B02",
"E 	c #E26704",
"F 	c #DD6405",
"G 	c #D66106",
"H 	c #CE5D07",
"I 	c #F97201",
"J 	c #BA5500",
"K 	c #A44B00",
"L 	c #C55A00",
"M 	c #371900",
"N 	c #4E2400",
"O 	c #CE5E01",
"P 	c #E86A03",
"Q 	c #E46704",
"R 	c #DF6505",
"S 	c #D76206",
"T 	c #D05E07",
"U 	c #C95B08",
"V 	c #E26601",
"W 	c #F67000",
"X 	c #FF7500",
"Y 	c #EE6D00",
"Z 	c #5D2B00",
"` 	c #391A00",
" .	c #BD5600",
"..	c #E46804",
"+.	c #E06604",
"@.	c #D86206",
"#.	c #D15F07",
"$.	c #CA5B08",
"%.	c #7A3802",
"&.	c #EB6B01",
"*.	c #6F3300",
"=.	c #BD5700",
"-.	c #261100",
";.	c #8E4100",
">.	c #FB7200",
",.	c #EA6A03",
"'.	c #E56804",
").	c #D96206",
"!.	c #D25F07",
"~.	c #C25608",
"{.	c #944401",
"].	c #E96A01",
"^.	c #B65301",
"/.	c #A94D00",
"(.	c #F97200",
"_.	c #743500",
":.	c #3B1B00",
"<.	c #D96306",
"[.	c #C25709",
"}.	c #AA4E01",
"|.	c #C45901",
"1.	c #7D3900",
"2.	c #E86A00",
"3.	c #D76300",
"4.	c #341800",
"5.	c #773700",
"6.	c #D86202",
"7.	c #753500",
"8.	c #682F00",
"9.	c #F57000",
"0.	c #7C3800",
"a.	c #1D0D00",
"b.	c #B45300",
"c.	c #E06605",
"d.	c #D15E07",
"e.	c #C1570A",
"f.	c #B8520C",
"g.	c #572800",
"h.	c #9E4801",
"i.	c #6B3100",
"j.	c #873D00",
"k.	c #1B0C00",
"l.	c #5A2900",
"m.	c #EA6B00",
"n.	c #DE6505",
"o.	c #D76106",
"p.	c #CF5E07",
"q.	c #C85A08",
"r.	c #BF560A",
"s.	c #B6520A",
"t.	c #E76803",
"u.	c #E76902",
"v.	c #2B1400",
"w.	c #1C0D00",
"x.	c #160A00",
"y.	c #612C00",
"z.	c #CF5E00",
"A.	c #DC6405",
"B.	c #D56006",
"C.	c #C75A08",
"D.	c #BE550A",
"E.	c #B4510C",
"F.	c #DD6501",
"G.	c #753601",
"H.	c #E76901",
"I.	c #DA6305",
"J.	c #D35F07",
"K.	c #CC5C08",
"L.	c #C45809",
"M.	c #BB540A",
"N.	c #93420A",
"O.	c #D25F01",
"P.	c #904101",
"Q.	c #C85B08",
"R.	c #924207",
"S.	c #3A1A03",
"T.	c #180B02",
"U.	c #512501",
"V.	c #9E4803",
"W.	c #E46803",
"X.	c #EC6C02",
"Y.	c #C65A02",
"Z.	c #934301",
"`.	c #C95B05",
" +	c #964404",
".+	c #572703",
"++	c #1A0C01",
"@+	c #241002",
"#+	c #6B3007",
"$+	c #AC4D0D",
"%+	c #914003",
"&+	c #371901",
"*+	c #110800",
"=+	c #6F3301",
"-+	c #CD5D01",
";+	c #E56901",
">+	c #D56101",
",+	c #C65A01",
"'+	c #B75302",
")+	c #7F3A02",
"!+	c #612C01",
"~+	c #3F1D01",
"{+	c #170B01",
"]+	c #0F0700",
"^+	c #391A02",
"/+	c #6D3104",
"(+	c #A44A08",
"_+	c #BA530B",
":+	c #B14F0C",
"<+	c #B04F0D",
"[+	c #CD5D04",
"}+	c #8F4102",
"|+	c #231000",
"1+	c #251100",
"2+	c #0D0600",
"3+	c #000000",
"4+	c #0E0700",
"5+	c #100700",
"6+	c #170A00",
"7+	c #210F00",
"8+	c #020100",
"9+	c #1F0E00",
"0+	c #2D1500",
"a+	c #3A1B00",
"b+	c #4D2301",
"c+	c #682F01",
"d+	c #813B02",
"e+	c #9D4704",
"f+	c #BF5605",
"g+	c #C65909",
"h+	c #B6510B",
"i+	c #D96305",
"j+	c #D46003",
"k+	c #7E3902",
"l+	c #E86A01",
"m+	c #E16701",
"n+	c #E06601",
"o+	c #D86201",
"p+	c #E56801",
"q+	c #E66803",
"r+	c #D46006",
"s+	c #C15709",
"t+	c #B9530B",
"u+	c #E16704",
"v+	c #612C02",
"w+	c #EB6B03",
"x+	c #C35809",
"y+	c #B04F0C",
"z+	c #D36005",
"A+	c #BD550A",
"B+	c #B04F0E",
"C+	c #AD4F06",
"D+	c #441F02",
"E+	c #472002",
"F+	c #1E0E01",
"G+	c #311601",
"H+	c #693002",
"I+	c #B65203",
"J+	c #E26604",
"K+	c #B7520B",
"L+	c #A24A05",
"M+	c #7C3704",
"N+	c #A34904",
"O+	c #602C02",
"P+	c #421E01",
"Q+	c #964403",
"R+	c #D36006",
"S+	c #AF4E0C",
"T+	c #BF560B",
"U+	c #CD5C08",
"V+	c #462002",
"W+	c #CE5D06",
"X+	c #843C04",
"Y+	c #431E02",
"Z+	c #823B04",
"`+	c #C0570A",
" @	c #AD4E0D",
".@	c #525151",
"+@	c #C07640",
"@@	c #813A05",
"#@	c #7F3905",
"$@	c #CD5D07",
"%@	c #CF5D07",
"&@	c #8F4005",
"*@	c #411D02",
"=@	c #833B04",
"-@	c #CC5C07",
";@	c #CB5C08",
">@	c #B4500C",
",@	c #A94E0F",
"'@	c #656565",
")@	c #CECAC7",
"!@	c #C27A47",
"~@	c #BF570A",
"{@	c #3C1B03",
"]@	c #B85308",
"^@	c #863C05",
"/@	c #401D03",
"(@	c #743405",
"_@	c #B75208",
":@	c #B5510C",
"<@	c #A85923",
"[@	c #756961",
"}@	c #515151",
"|@	c #494949",
"1@	c #424242",
"2@	c #3D3D3D",
"3@	c #555555",
"4@	c #737373",
"5@	c #797878",
"6@	c #96613D",
"7@	c #A0490A",
"8@	c #4C2204",
"9@	c #BD560A",
"0@	c #C0560A",
"a@	c #BE560A",
"b@	c #8B3F07",
"c@	c #482004",
"d@	c #652D07",
"e@	c #873C09",
"f@	c #97440B",
"g@	c #893E0A",
"h@	c #813A0A",
"i@	c #8B532D",
"j@	c #8D8986",
"k@	c #888888",
"l@	c #858585",
"m@	c #828282",
"n@	c #7E7E7E",
"o@	c #757575",
"p@	c #636363",
"q@	c #505050",
"r@	c #454545",
"s@	c #3C3C3C",
"t@	c #774624",
"u@	c #7A3A0D",
"v@	c #602B06",
"w@	c #B6520B",
"x@	c #B3500C",
"y@	c #99450B",
"z@	c #823A0A",
"A@	c #783609",
"B@	c #823B0A",
"C@	c #944813",
"D@	c #957055",
"E@	c #8D8C8C",
"F@	c #909090",
"G@	c #8D8D8D",
"H@	c #8A8A8A",
"I@	c #868686",
"J@	c #838383",
"K@	c #808080",
"L@	c #7C7C7C",
"M@	c #797979",
"N@	c #767676",
"O@	c #6B6B6B",
"P@	c #404040",
"Q@	c #525252",
"R@	c #585858",
"S@	c #4E4B49",
"T@	c #856956",
"U@	c #6C3E1F",
"V@	c #A84D0D",
"W@	c #A25018",
"X@	c #825637",
"Y@	c #696461",
"Z@	c #6F6F6F",
"`@	c #787878",
" #	c #8B8B8B",
".#	c #878787",
"+#	c #848484",
"@#	c #818181",
"##	c #7D7D7D",
"$#	c #7A7A7A",
"%#	c #6C6C6C",
"&#	c #444444",
"*#	c #969696",
"=#	c #E4E4E4",
"-#	c #E5E5E5",
";#	c #D3D3D3",
">#	c #616161",
",#	c #5A5A5A",
"'#	c #9F9F9F",
")#	c #A7A7A7",
"!#	c #7E726B",
"~#	c #805C43",
"{#	c #88502A",
"]#	c #8F491A",
"^#	c #934713",
"/#	c #934510",
"(#	c #853F0E",
"_#	c #743911",
":#	c #603519",
"<#	c #46362A",
"[#	c #3E3E3E",
"}#	c #4C4C4C",
"|#	c #595959",
"1#	c #666666",
"2#	c #727272",
"3#	c #919191",
"4#	c #8E8E8E",
"5#	c #646464",
"6#	c #474747",
"7#	c #939393",
"8#	c #F0F0F0",
"9#	c #EDEDED",
"0#	c #EAEAEA",
"a#	c #E7E7E7",
"b#	c #D7D7D7",
"c#	c #B1B1B1",
"d#	c #C5C5C5",
"e#	c #A1A1A1",
"f#	c #3F3F3F",
"g#	c #313131",
"h#	c #272727",
"i#	c #232323",
"j#	c #282828",
"k#	c #323232",
"l#	c #4B4B4B",
"m#	c #979797",
"n#	c #8F8F8F",
"o#	c #8C8C8C",
"p#	c #5C5C5C",
"q#	c #6A6A6A",
"r#	c #F5F5F5",
"s#	c #F4F4F4",
"t#	c #F1F1F1",
"u#	c #E1E1E1",
"v#	c #DEDEDE",
"w#	c #D8D8D8",
"x#	c #B8B8B8",
"y#	c #A4A4A4",
"z#	c #626262",
"A#	c #5D5D5D",
"B#	c #5E5E5E",
"C#	c #7B7B7B",
"D#	c #9B9B9B",
"E#	c #A0A0A0",
"F#	c #9D9D9D",
"G#	c #999999",
"H#	c #BFBFBF",
"I#	c #FCFCFC",
"J#	c #F9F9F9",
"K#	c #F2F2F2",
"L#	c #EFEFEF",
"M#	c #EBEBEB",
"N#	c #E8E8E8",
"O#	c #DBDBDB",
"P#	c #C4C4C4",
"Q#	c #B5B5B5",
"R#	c #AAAAAA",
"S#	c #A2A2A2",
"T#	c #989898",
"U#	c #9E9E9E",
"V#	c #A5A5A5",
"W#	c #ABABAB",
"X#	c #AEAEAE",
"Y#	c #A8A8A8",
"Z#	c #949494",
"`#	c #707070",
" $	c #434343",
".$	c #FDFDFD",
"+$	c #FFFFFF",
"@$	c #F6F6F6",
"#$	c #F3F3F3",
"$$	c #ECECEC",
"%$	c #E9E9E9",
"&$	c #E6E6E6",
"*$	c #E3E3E3",
"=$	c #DFDFDF",
"-$	c #DCDCDC",
";$	c #D9D9D9",
">$	c #D5D5D5",
",$	c #D2D2D2",
"'$	c #CFCFCF",
")$	c #CCCCCC",
"!$	c #C9C9C9",
"~$	c #C6C6C6",
"{$	c #C2C2C2",
"]$	c #BCBCBC",
"^$	c #B2B2B2",
"/$	c #AFAFAF",
"($	c #9C9C9C",
"_$	c #959595",
":$	c #7F7F7F",
"<$	c #777777",
"[$	c #FAFAFA",
"}$	c #F7F7F7",
"|$	c #E0E0E0",
"1$	c #DDDDDD",
"2$	c #DADADA",
"3$	c #D6D6D6",
"4$	c #D0D0D0",
"5$	c #C3C3C3",
"6$	c #C0C0C0",
"7$	c #BDBDBD",
"8$	c #BABABA",
"9$	c #B6B6B6",
"0$	c #B3B3B3",
"a$	c #B0B0B0",
"b$	c #ACACAC",
"c$	c #A9A9A9",
"d$	c #A6A6A6",
"e$	c #898989",
"f$	c #FEFEFE",
"g$	c #FBFBFB",
"h$	c #F8F8F8",
"i$	c #EEEEEE",
"j$	c #C1C1C1",
"k$	c #B7B7B7",
"l$	c #C8C8C8",
"m$	c #D4D4D4",
"n$	c #D1D1D1",
"o$	c #CECECE",
"p$	c #CACACA",
"q$	c #C7C7C7",
"r$	c #B4B4B4",
"s$	c #9A9A9A",
"t$	c #4A4A4A",
"u$	c #6D6D6D",
"v$	c #5B5B5B",
"w$	c #676767",
"x$	c #CBCBCB",
"y$	c #BEBEBE",
"z$	c #BBBBBB",
"A$	c #6E6E6E",
"B$	c #414141",
"C$	c #686868",
"D$	c #B9B9B9",
"E$	c #929292",
"F$	c #696969",
"G$	c #CDCDCD",
"H$	c #4F4F4F",
"I$	c #575757",
"J$	c #E2E2E2",
"K$	c #717171",
"L$	c #535353",
"M$	c #5F5F5F",
"                                                                                                ",
"                                    . + @ # $ % & *                                             ",
"                              = - ; > , ' ) ! ~ { ] ^ / (                                       ",
"                          = , _ : < [ } } | , ) ! # 1 ^ 2 3 4                                   ",
"                        ' | < 5 # 6 7 6 6 8 } | ' ! # ] 9 0 a b                                 ",
"                      c | [ d e 7 7 7 7 7 7 6 [ f ' g { & h i j k                               ",
"                    c | [ l m 7 n n n n n 7 7 6 [ | ~ o p q r s t u                             ",
"                  g , } 8 v w n x x y x x n 7 7 8 z A B C D / E F G H                           ",
"                  ) | I J K n x y y y y y x n L M N O ) # ] P Q R S T U                         ",
"                V c } 8 d W x y y X X X y Y Z `  .8 } c ~ 1 9 ..+.@.#.$.                        ",
"              %.&.' } ) *.n x y X X X X =.-.;.>.7 6 } ' ~ % ,.'.+.).!.$.~.                      ",
"              {.].' } ^./.n x y X X (._.:.e x n 7 6 } ' ~ % ,.'.+.<.!.$.[.                      ",
"              }.|.' } 1.2.n x y X 3.4.5.w y x n 7 6 } ' ~ % ,.'.+.).!.$.[.                      ",
"              6.7.c f 8.7 7 x 9.0.a.b.X y y x 7 7 8 f c ~ 1 9 ..c.@.d.U e.f.                    ",
"            P ] g.h.' i.7 2.j.k.l.m.y y y x n 7 7 [ | ) # ] P 3 n.o.p.q.r.s.                    ",
"            t.D u.d v.w.v.x.y.z.x x x x x n 7 7 8 } ' g { D / E A.B.H C.D.E.                    ",
"            '.9 1 # F.G.H.6 7 7 7 n n n 7 7 7 6 [ , ) # 1 9 '.+.I.J.K.L.M.N.                    ",
"            a / D % O.P., } 8 7 7 7 7 7 7 7 8 } | ) ~ % D / 3 n.o.T Q.R.S.T.                    ",
"            U.V.W.X.Y.Z.) , } [ 8 6 6 6 8 [ } , ) ~ { X.9 '.+.`. +.+++@+#+$+                    ",
"            %+&+*+U.=+G.-+].' , f } } } f , ;+>+,+'+h.)+!+~+{+]+^+/+(+_+:+<+                    ",
"              n.[+}+U.|+1+2+3+4+5+6+7+k.2+8+5+9+0+a+b+c+d+e+f+J.K.g+D.h+<+<+                    ",
"              i+R E j+k+D ] % l+m+n+O.o+p+# % ] D P q+E R I.r+H q.s+t+:+<+                      ",
"              r+i+n.u+v+/ 9 w+& ] 1 1 1 ] & w+9 / ..E n.i+r+p.U x+M.E.<+y+                      ",
"                r+@.z+v+E ..2 / P 9 9 9 P / 2 ..E +.F @.r+p.$.L.A+h+<+<+B+                      ",
"                C+D+E+F+G+H+I+3 Q ......Q 3 J++.F I.G !.H U L.A+K+y+<+<+                        ",
"                  $.T L+M+N+O+P+Q+A.+.R R F b <.o.R+T K.q.x+A+K+y+<+<+S+                        ",
"                  T+U U+V+#.r+W+X+Y+Z+r+S G r+!.T U+U g+`+M.h+y+<+<+ @                          ",
"                  .@+@g+@@#@$@%@T p.&@*@=@-@$@;@U g+[.A+t+>@<+<+<+,@                            ",
"                  '@)@!@~@{@]@C.q.U U C.^@/@(@_@`+A+t+:@:+<+<+<+<@[@}@|@1@2@                    ",
"                  3@4@5@6@7@8@9@r.0@`+0@r.a@b@8@c@d@e@f@f@g@h@i@j@k@l@m@n@o@p@q@r@s@            ",
"                          t@u@v@w@K+K+K+w@:@x@:+<+y@z@A@B@C@D@E@F@G@H@I@J@K@L@M@N@O@P@          ",
"              Q@R@}@        S@T@U@V@<+<+<+<+<+<+<+<+<+W@X@Y@Z@`@m@ #G@H@.#+#@###$#%#&#          ",
"            *#=#-#;#>#    ,#'#)#G@!#~#{#]#^#/#(#_#:#<#[#}#|#1#2#n@H@3#4# #k@+#@#5#6#            ",
"          7#8#9#0#a#b#'#c#b#d#e# #N@p@}@f#g#h#i#j#k#[#l#R@'@2#n@H@m#*#7#n#o#k@p#r@              ",
"        q#r#s#t#9#0#a#=#u#v#w#x#y#7#J@o@q#z#A#p#B#p@q#4@C#l@F@D#E#F#G#*#7#F@'@1@                ",
"        H#I#J#r#K#L#M#N#-#u#v#O#;#P#Q#R#S#F#G#m#T#D#U#V#W#X#W#Y#y#e#U#D#m#Z#`# $ $|@l#1@        ",
"      5#.$+$I#J#@$#$8#$$%$&$*$=$-$;$>$,$'$)$!$~${$H#]$x#Q#^$/$W#Y#V#S#'#($T#_$3#4# #k@:$ $      ",
"      <$+$+$+$.$[$}$#$8#9#0#a#=#|$1$2$3$;#4$)$!$~$5$6$7$8$9$0$a$b$c$d$S#'#($G#*#7#F@o#e$q@      ",
"      1#a#+$+$+$f$g$h$s#t#i$0#a#u#j$k$l$w#m$n$o$p$q$P#6$7$8$k$r$c#X#R#)#y#E#F#s$*#7#F@o#t$      ",
"        u$F#N#+$+$+$I#J#@$K#L#$$4@v$|#B#w$M@e#4$'$x$l$d#{$y$z$x#r$c#X#G#A$D#e#U#D#T#Z#%#B$      ",
"          |#C$l@^$8#+$I#J#@$#$8#w$          3@A$]$'$)$!$~$5$H#]$D$Q#^$Q@6#R@C#S#'#D#Z@l#        ",
"                p#C$L@E$8$w#0#&$F$            l#N@;#4$G$!$~$5$6$7$8$F@&#    H$v$z#3@6#          ",
"                      3@,#5#'@p@,#        R@+#{$O#w#>$n$o$x$q$P#j$7$I$                          ",
"                                          1#*$J$=$O#w#>$,$'$)$l$d#Z#6#                          ",
"                                          3@K$a$|$|$1$;$3$;#'$)$k$Q@                            ",
"                                              p#q#n@E#z$n$b#;#'#,#                              ",
"                                                    L$,#B#5#M$}@                                ",
"                                                                                                "};
